<svg width="1280" height="832" viewBox="0 0 1280 832" fill="none" xmlns="http://www.w3.org/2000/svg">
<rect width="1280" height="832" fill="#FBF2D5"/>
<path fill-rule="evenodd" clip-rule="evenodd" d="M64 0H0V76C0 93.6731 14.3269 108 32 108C49.6731 108 64 93.6731 64 76V0Z" fill="#394A51"/>
<path fill-rule="evenodd" clip-rule="evenodd" d="M576 0H512V76C512 93.6731 526.327 108 544 108C561.673 108 576 93.6731 576 76V0Z" fill="#394A51"/>
<path fill-rule="evenodd" clip-rule="evenodd" d="M320 0H256V76C256 93.6731 270.327 108 288 108C305.673 108 320 93.6731 320 76V0Z" fill="#394A51"/>
<path fill-rule="evenodd" clip-rule="evenodd" d="M832 0H768V76C768 93.6731 782.327 108 800 108C817.673 108 832 93.6731 832 76V0Z" fill="#394A51"/>
<path fill-rule="evenodd" clip-rule="evenodd" d="M1088 0H1024V76C1024 93.6731 1038.33 108 1056 108C1073.67 108 1088 93.6731 1088 76V0Z" fill="#394A51"/>
<path fill-rule="evenodd" clip-rule="evenodd" d="M192 0H128V76C128 93.6731 142.327 108 160 108C177.673 108 192 93.6731 192 76V0Z" fill="#394A51"/>
<path fill-rule="evenodd" clip-rule="evenodd" d="M704 0H640V76C640 93.6731 654.327 108 672 108C689.673 108 704 93.6731 704 76V0Z" fill="#394A51"/>
<path fill-rule="evenodd" clip-rule="evenodd" d="M448 0H384V76C384 93.6731 398.327 108 416 108C433.673 108 448 93.6731 448 76V0Z" fill="#394A51"/>
<path fill-rule="evenodd" clip-rule="evenodd" d="M960 0H896V76C896 93.6731 910.327 108 928 108C945.673 108 960 93.6731 960 76V0Z" fill="#394A51"/>
<path fill-rule="evenodd" clip-rule="evenodd" d="M1216 0H1152V76C1152 93.6731 1166.33 108 1184 108C1201.67 108 1216 93.6731 1216 76V0Z" fill="#394A51"/>
<path fill-rule="evenodd" clip-rule="evenodd" d="M128 0H64V76C64 93.6731 78.3269 108 96 108C113.673 108 128 93.6731 128 76V0Z" fill="#7FA99B"/>
<path fill-rule="evenodd" clip-rule="evenodd" d="M640 0H576V76C576 93.6731 590.327 108 608 108C625.673 108 640 93.6731 640 76V0Z" fill="#7FA99B"/>
<path fill-rule="evenodd" clip-rule="evenodd" d="M384 0H320V76C320 93.6731 334.327 108 352 108C369.673 108 384 93.6731 384 76V0Z" fill="#7FA99B"/>
<path fill-rule="evenodd" clip-rule="evenodd" d="M896 0H832V76C832 93.6731 846.327 108 864 108C881.673 108 896 93.6731 896 76V0Z" fill="#7FA99B"/>
<path fill-rule="evenodd" clip-rule="evenodd" d="M1152 0H1088V76C1088 93.6731 1102.33 108 1120 108C1137.67 108 1152 93.6731 1152 76V0Z" fill="#7FA99B"/>
<path fill-rule="evenodd" clip-rule="evenodd" d="M256 0H192V76C192 93.6731 206.327 108 224 108C241.673 108 256 93.6731 256 76V0Z" fill="#7FA99B"/>
<path fill-rule="evenodd" clip-rule="evenodd" d="M768 0H704V76C704 93.6731 718.327 108 736 108C753.673 108 768 93.6731 768 76V0Z" fill="#7FA99B"/>
<path fill-rule="evenodd" clip-rule="evenodd" d="M512 0H448V76C448 93.6731 462.327 108 480 108C497.673 108 512 93.6731 512 76V0Z" fill="#7FA99B"/>
<path fill-rule="evenodd" clip-rule="evenodd" d="M1024 0H960V76C960 93.6731 974.327 108 992 108C1009.67 108 1024 93.6731 1024 76V0Z" fill="#7FA99B"/>
<path fill-rule="evenodd" clip-rule="evenodd" d="M1280 0H1216V76C1216 93.6731 1230.33 108 1248 108C1265.67 108 1280 93.6731 1280 76V0Z" fill="#7FA99B"/>
</svg>
